<mxfile host="app.diagrams.net" agent="Mozilla/5.0 (Macintosh; Intel Mac OS X 10_15_7) AppleWebKit/537.36 (KHTML, like Gecko) Chrome/131.0.0.0 Safari/537.36" version="26.0.16">
  <diagram name="Page-1" id="97QS6nYO1JyJ_AOzw186">
    <mxGraphModel dx="612" dy="1028" grid="1" gridSize="10" guides="1" tooltips="1" connect="1" arrows="1" fold="1" page="1" pageScale="1" pageWidth="1600" pageHeight="900" math="0" shadow="0">
      <root>
        <mxCell id="0" />
        <mxCell id="1" parent="0" />
        <mxCell id="e7X7T-yTHSHQljYXtCQN-4" style="rounded=0;orthogonalLoop=1;jettySize=auto;html=1;orthogonal=1;" edge="1" parent="1" source="e7X7T-yTHSHQljYXtCQN-1" target="e7X7T-yTHSHQljYXtCQN-2">
          <mxGeometry relative="1" as="geometry" />
        </mxCell>
        <mxCell id="e7X7T-yTHSHQljYXtCQN-20" style="rounded=0;orthogonalLoop=1;jettySize=auto;html=1;orthogonal=1;" edge="1" parent="1" source="e7X7T-yTHSHQljYXtCQN-1" target="e7X7T-yTHSHQljYXtCQN-9">
          <mxGeometry relative="1" as="geometry" />
        </mxCell>
        <mxCell id="e7X7T-yTHSHQljYXtCQN-1" value="cs101" style="ellipse;whiteSpace=wrap;html=1;aspect=fixed;" vertex="1" parent="1">
          <mxGeometry x="160" y="315" width="80" height="80" as="geometry" />
        </mxCell>
        <mxCell id="e7X7T-yTHSHQljYXtCQN-6" style="rounded=0;orthogonalLoop=1;jettySize=auto;html=1;orthogonal=1;" edge="1" parent="1" source="e7X7T-yTHSHQljYXtCQN-2" target="e7X7T-yTHSHQljYXtCQN-5">
          <mxGeometry relative="1" as="geometry" />
        </mxCell>
        <mxCell id="e7X7T-yTHSHQljYXtCQN-2" value="cs221" style="ellipse;whiteSpace=wrap;html=1;aspect=fixed;" vertex="1" parent="1">
          <mxGeometry x="340" y="260" width="80" height="80" as="geometry" />
        </mxCell>
        <mxCell id="e7X7T-yTHSHQljYXtCQN-8" style="rounded=0;orthogonalLoop=1;jettySize=auto;html=1;orthogonal=1;" edge="1" parent="1" source="e7X7T-yTHSHQljYXtCQN-5" target="e7X7T-yTHSHQljYXtCQN-7">
          <mxGeometry relative="1" as="geometry" />
        </mxCell>
        <mxCell id="e7X7T-yTHSHQljYXtCQN-12" style="rounded=0;orthogonalLoop=1;jettySize=auto;html=1;orthogonal=1;" edge="1" parent="1" source="e7X7T-yTHSHQljYXtCQN-5" target="e7X7T-yTHSHQljYXtCQN-11">
          <mxGeometry relative="1" as="geometry" />
        </mxCell>
        <mxCell id="e7X7T-yTHSHQljYXtCQN-16" style="rounded=0;orthogonalLoop=1;jettySize=auto;html=1;orthogonal=1;" edge="1" parent="1" source="e7X7T-yTHSHQljYXtCQN-5" target="e7X7T-yTHSHQljYXtCQN-14">
          <mxGeometry relative="1" as="geometry" />
        </mxCell>
        <mxCell id="e7X7T-yTHSHQljYXtCQN-22" style="rounded=0;orthogonalLoop=1;jettySize=auto;html=1;orthogonal=1;" edge="1" parent="1" source="e7X7T-yTHSHQljYXtCQN-7" target="e7X7T-yTHSHQljYXtCQN-21">
          <mxGeometry relative="1" as="geometry" />
        </mxCell>
        <mxCell id="e7X7T-yTHSHQljYXtCQN-5" value="cs222" style="ellipse;whiteSpace=wrap;html=1;aspect=fixed;" vertex="1" parent="1">
          <mxGeometry x="520" y="256" width="80" height="80" as="geometry" />
        </mxCell>
        <mxCell id="e7X7T-yTHSHQljYXtCQN-13" style="rounded=0;orthogonalLoop=1;jettySize=auto;html=1;orthogonal=1;" edge="1" parent="1" source="e7X7T-yTHSHQljYXtCQN-7" target="e7X7T-yTHSHQljYXtCQN-11">
          <mxGeometry relative="1" as="geometry" />
        </mxCell>
        <mxCell id="e7X7T-yTHSHQljYXtCQN-23" style="rounded=0;orthogonalLoop=1;jettySize=auto;html=1;orthogonal=1;" edge="1" parent="1" source="e7X7T-yTHSHQljYXtCQN-7" target="e7X7T-yTHSHQljYXtCQN-21">
          <mxGeometry relative="1" as="geometry" />
        </mxCell>
        <mxCell id="e7X7T-yTHSHQljYXtCQN-10" style="rounded=0;orthogonalLoop=1;jettySize=auto;html=1;orthogonal=1;" edge="1" parent="1" source="e7X7T-yTHSHQljYXtCQN-9" target="e7X7T-yTHSHQljYXtCQN-7">
          <mxGeometry relative="1" as="geometry" />
        </mxCell>
        <mxCell id="e7X7T-yTHSHQljYXtCQN-17" style="rounded=0;orthogonalLoop=1;jettySize=auto;html=1;orthogonal=1;" edge="1" parent="1" source="e7X7T-yTHSHQljYXtCQN-9" target="e7X7T-yTHSHQljYXtCQN-14">
          <mxGeometry relative="1" as="geometry" />
        </mxCell>
        <mxCell id="e7X7T-yTHSHQljYXtCQN-9" value="cs233" style="ellipse;whiteSpace=wrap;html=1;aspect=fixed;" vertex="1" parent="1">
          <mxGeometry x="340" y="370" width="80" height="80" as="geometry" />
        </mxCell>
        <mxCell id="e7X7T-yTHSHQljYXtCQN-11" value="cs224" style="ellipse;whiteSpace=wrap;html=1;aspect=fixed;" vertex="1" parent="1">
          <mxGeometry x="810" y="256" width="80" height="80" as="geometry" />
        </mxCell>
        <mxCell id="e7X7T-yTHSHQljYXtCQN-14" value="cs232" style="ellipse;whiteSpace=wrap;html=1;aspect=fixed;" vertex="1" parent="1">
          <mxGeometry x="520" y="450" width="80" height="80" as="geometry" />
        </mxCell>
        <mxCell id="e7X7T-yTHSHQljYXtCQN-21" value="cs264" style="ellipse;whiteSpace=wrap;html=1;aspect=fixed;" vertex="1" parent="1">
          <mxGeometry x="810" y="450" width="80" height="80" as="geometry" />
        </mxCell>
        <mxCell id="e7X7T-yTHSHQljYXtCQN-25" value="" style="rounded=0;orthogonalLoop=1;jettySize=auto;html=1;orthogonal=1;" edge="1" parent="1" source="e7X7T-yTHSHQljYXtCQN-5" target="e7X7T-yTHSHQljYXtCQN-7">
          <mxGeometry relative="1" as="geometry">
            <mxPoint x="599" y="306" as="sourcePoint" />
            <mxPoint x="881" y="380" as="targetPoint" />
          </mxGeometry>
        </mxCell>
        <mxCell id="e7X7T-yTHSHQljYXtCQN-7" value="cs223" style="ellipse;whiteSpace=wrap;html=1;aspect=fixed;" vertex="1" parent="1">
          <mxGeometry x="680" y="340" width="80" height="80" as="geometry" />
        </mxCell>
      </root>
    </mxGraphModel>
  </diagram>
</mxfile>
